{
	"asset":{
		"version":"2.0",
		"generator":"Maxon Cinema 4D 2024.2.0 (#200000219)"
	},
	"scenes":[{
		"nodes":[0]
	}],
	"nodes":[{
		"name":"Loft",
		"mesh":0,
		"scale":[1.0,
		1.0,
		1.0],
		"translation":[-0.06687428057193756,
		-0.0000028787317205569708,
		0.19160865247249604],
		"rotation":[0.0,
		0.0,
		0.0,
		-1.0]
	}],
	"meshes":[{
		"name":"Loft",
		"primitives":[{
			"attributes":{
				"POSITION":1,
				"NORMAL":2,
				"TEXCOORD_0":3
			},
			"indices":0,
			"material":0
		}]
	}],
	"accessors":[{
		"bufferView":0,
		"type":"SCALAR",
		"componentType":5123,
		"count":10776,
		"byteOffset":0,
		"min":[0],
		"max":[1813]
	},
	{
		"bufferView":1,
		"type":"VEC3",
		"componentType":5126,
		"count":1814,
		"byteOffset":0,
		"min":[-0.7897935509681702,
		-0.9881925582885742,
		-0.1785346269607544],
		"max":[0.7897935509681702,
		0.9881925582885742,
		0.1785346269607544]
	},
	{
		"bufferView":1,
		"type":"VEC3",
		"componentType":5126,
		"count":1814,
		"byteOffset":12,
		"min":[-0.9825502038002014,
		-0.9967733025550842,
		-0.9959360361099243],
		"max":[0.98328697681427,
		0.9958311319351196,
		0.9965332746505737]
	},
	{
		"bufferView":1,
		"type":"VEC2",
		"componentType":5126,
		"count":1814,
		"byteOffset":24,
		"min":[-0.45497047901153567,
		-0.26912420988082888],
		"max":[0.790828287601471,
		0.7700409889221191]
	}],
	"bufferViews":[{
		"buffer":0,
		"byteOffset":0,
		"byteLength":21552,
		"target":34963
	},
	{
		"buffer":0,
		"byteOffset":21552,
		"byteLength":58048,
		"target":34962,
		"byteStride":32
	}],
	"buffers":[{
		"uri":"data:application/octet-stream;base64,",
		"byteLength":79600
	}],
	"images":[{
		"uri":"data:image/png;base64,"
	},
	{
		"uri":"data:image/png;base64,"
	}],
	"samplers":[{
		"magFilter":9729,
		"minFilter":9729,
		"wrapS":10497,
		"wrapT":10497
	},
	{
		"magFilter":9729,
		"minFilter":9729,
		"wrapS":10497,
		"wrapT":10497
	}],
	"textures":[{
		"sampler":0,
		"source":0
	},
	{
		"sampler":1,
		"source":1
	}],
	"materials":[{
		"pbrMetallicRoughness":{
			"baseColorTexture":{
				"index":0
			},
			"baseColorFactor":[1.0,
			1.0,
			1.0,
			1.0],
			"metallicFactor":1.0,
			"roughnessFactor":1.0
		},
		"normalTexture":{
			"index":1,
			"scale":1.0
		},
		"emissiveFactor":[0.0,
		0.0,
		0.0],
		"alphaMode":"OPAQUE",
		"doubleSided":false,
		"name":"Mat"
	}]
}